<svg xmlns="http://www.w3.org/2000/svg" viewBox="0 0 400 280">
  <defs>
    <pattern id="hatch" width="10" height="10" patternTransform="rotate(25)" patternUnits="userSpaceOnUse">
      <line x1="0" y1="0" x2="0" y2="10" stroke="#26301F" stroke-width="1" opacity="0.06" />
    </pattern>
  </defs>
  <rect width="400" height="280" fill="#F6F0DE" />
  <rect width="400" height="280" fill="url(#hatch)" />
  <rect x="1.5" y="1.5" width="397" height="277" fill="none" stroke="#C9BD93" stroke-width="3" />

  <!-- ferris wheel -->
  <circle cx="140" cy="155" r="56" fill="none" stroke="#3F5A38" stroke-width="3" />
  <g stroke="#3F5A38" stroke-width="2">
    <line x1="140" y1="99" x2="140" y2="211" />
    <line x1="86" y1="155" x2="194" y2="155" />
    <line x1="100" y1="115" x2="180" y2="195" />
    <line x1="100" y1="195" x2="180" y2="115" />
  </g>
  <circle cx="140" cy="99" r="5" fill="#9C6E1E" />
  <circle cx="140" cy="211" r="5" fill="#9C6E1E" />
  <circle cx="86" cy="155" r="5" fill="#9C6E1E" />
  <circle cx="194" cy="155" r="5" fill="#9C6E1E" />
  <circle cx="100" cy="115" r="5" fill="#9C6E1E" />
  <circle cx="180" cy="195" r="5" fill="#9C6E1E" />
  <circle cx="100" cy="195" r="5" fill="#9C6E1E" />
  <circle cx="180" cy="115" r="5" fill="#9C6E1E" />
  <line x1="140" y1="211" x2="140" y2="224" stroke="#3F5A38" stroke-width="3" />

  <!-- big top tent -->
  <path d="M270 68 L318 202 L222 202 Z" fill="#3F5A38" opacity="0.14" stroke="#3F5A38" stroke-width="3" stroke-linejoin="round" />
  <line x1="270" y1="68" x2="270" y2="202" stroke="#3F5A38" stroke-width="2" opacity="0.5" />
  <path d="M270 40 L270 68 L288 54 Z" fill="#8A4433" />
</svg>
